<?xml version="1.0" standalone="no"?>
<!DOCTYPE svg PUBLIC "-//W3C//DTD SVG 20010904//EN"
 "http://www.w3.org/TR/2001/REC-SVG-20010904/DTD/svg10.dtd">
<svg version="1.0" xmlns="http://www.w3.org/2000/svg"
 width="3300.000000pt" height="3300.000000pt" viewBox="0 0 3300.000000 3300.000000"
 preserveAspectRatio="xMidYMid meet">
<metadata>
Created by potrace 1.11, written by Peter Selinger 2001-2013
</metadata>
<g transform="translate(0.000000,3300.000000) scale(0.100000,-0.100000)"
fill="#000000" stroke="none">
<path d="M16000 31654 c-30 -2 -136 -8 -235 -14 -2690 -158 -5256 -1183 -7350
-2934 -507 -425 -1136 -1054 -1561 -1561 -1664 -1989 -2671 -4402 -2903 -6950
-42 -456 -46 -569 -46 -1185 0 -616 4 -729 46 -1185 232 -2548 1239 -4961
2903 -6950 425 -507 1054 -1136 1561 -1561 1989 -1664 4402 -2671 6950 -2903
456 -42 569 -46 1185 -46 616 0 729 4 1185 46 3094 281 5985 1711 8113 4014
1889 2043 3048 4642 3301 7400 41 447 46 568 46 1185 0 617 -5 738 -46 1185
-253 2757 -1412 5357 -3301 7400 -307 332 -716 728 -1043 1009 -1975 1696
-4398 2739 -6965 2995 -451 46 -608 53 -1205 56 -319 1 -605 1 -635 -1z m1340
-399 c1638 -112 3133 -508 4585 -1214 2116 -1029 3928 -2691 5148 -4721 953
-1587 1531 -3357 1696 -5195 38 -423 46 -603 46 -1115 0 -882 -66 -1571 -230
-2398 -627 -3158 -2490 -5958 -5175 -7774 -1712 -1158 -3689 -1862 -5745
-2047 -423 -38 -603 -46 -1115 -46 -512 0 -692 8 -1115 46 -2758 248 -5362
1433 -7355 3347 -685 658 -1241 1320 -1744 2077 -1140 1714 -1822 3647 -2005
5680 -38 423 -46 603 -46 1115 0 881 66 1571 230 2396 416 2100 1389 4072
2804 5684 345 393 768 815 1161 1159 1138 997 2491 1796 3890 2299 1234 443
2397 668 3755 726 192 8 1005 -4 1215 -19z"/>
<path d="M16763 28551 c-42 -11 -85 -39 -118 -79 -28 -33 -69 -138 -80 -202
-3 -19 -7 -46 -10 -60 -14 -79 -20 -187 -20 -365 0 -204 7 -326 30 -515 3 -25
7 -63 10 -85 12 -112 17 -150 21 -154 2 -2 -2 -11 -10 -20 -28 -32 -27 -56 2
-93 19 -25 34 -61 45 -116 22 -100 49 -132 113 -132 34 0 47 5 63 26 12 15 21
36 21 47 0 14 5 18 18 14 9 -3 57 -20 107 -37 115 -40 146 -45 285 -45 191 0
304 25 455 102 387 196 579 596 464 969 -94 306 -349 540 -680 625 -125 33
-363 32 -494 0 -60 -16 -62 -15 -59 27 7 73 -69 116 -163 93z m657 -270 c189
-65 328 -230 385 -456 36 -143 29 -317 -20 -467 -79 -241 -269 -432 -465 -468
-118 -22 -291 11 -415 78 l-50 27 1 55 c1 30 5 100 9 155 13 186 14 210 20
340 3 72 8 162 10 200 2 39 7 140 11 225 4 85 8 173 10 195 1 22 3 50 3 62 1
13 10 25 24 29 169 57 354 67 477 25z"/>
<path d="M15058 28443 c-37 -6 -78 -47 -78 -78 0 -17 11 -35 30 -52 79 -66
225 -474 255 -713 4 -30 9 -64 12 -75 11 -48 10 -316 -3 -376 -20 -103 -22
-109 -52 -173 -34 -72 -74 -113 -134 -137 -95 -39 -186 -11 -280 87 -120 125
-190 238 -348 559 -245 501 -282 571 -343 650 -78 101 -147 144 -234 147 -76
3 -135 -38 -149 -102 -5 -28 -6 -300 0 -340 2 -14 7 -66 11 -115 3 -50 8 -101
10 -115 2 -14 7 -50 10 -80 4 -30 9 -62 10 -70 1 -8 6 -40 10 -70 4 -30 9 -64
11 -75 3 -11 9 -49 14 -85 14 -92 21 -132 26 -157 2 -13 6 -35 9 -50 36 -188
82 -374 107 -433 21 -49 41 -63 94 -64 39 0 50 4 70 27 27 32 30 51 10 88 -10
20 -30 86 -41 139 -18 83 -26 121 -30 145 -12 62 -53 332 -60 390 -3 33 -8 69
-10 80 -2 11 -7 46 -10 78 -10 112 -17 172 -20 196 -6 37 8 14 45 -74 52 -126
165 -345 222 -432 155 -237 309 -380 488 -451 163 -65 357 -60 495 12 194 100
277 306 270 666 -4 248 -33 408 -121 675 -65 197 -133 322 -199 361 -32 20
-54 23 -97 17z"/>
<path d="M18681 28249 c-24 -12 -61 -41 -82 -63 -66 -68 -153 -271 -203 -471
-19 -77 -28 -132 -52 -305 -3 -25 -7 -135 -9 -245 -6 -288 24 -438 104 -522
47 -49 88 -61 281 -78 36 -3 81 -7 100 -10 19 -2 82 -9 140 -15 133 -13 198
-20 230 -25 14 -2 52 -6 85 -9 33 -4 78 -9 100 -13 22 -3 51 -7 65 -9 14 -1
50 -5 80 -9 47 -6 59 -4 83 15 36 28 36 68 0 102 -24 23 -44 29 -143 42 -63 8
-142 18 -175 21 -33 3 -73 8 -90 10 -16 2 -57 7 -90 10 -33 3 -78 8 -100 10
-22 3 -58 7 -80 10 -22 2 -73 7 -114 11 -40 3 -80 8 -90 9 -9 2 -31 4 -49 4
l-34 1 7 82 c4 46 8 90 10 98 1 8 6 49 11 90 4 41 8 77 9 80 1 3 5 34 9 70 5
36 10 72 11 80 1 8 6 34 10 57 6 37 10 42 28 39 12 -3 45 -8 72 -11 28 -4 64
-9 81 -11 17 -3 46 -6 65 -8 43 -5 272 -35 319 -42 19 -3 58 -7 85 -10 28 -3
75 -9 106 -13 101 -13 149 -8 170 18 32 40 21 83 -28 110 -13 6 -80 18 -150
26 -152 18 -163 19 -318 40 -66 8 -140 18 -165 21 -25 3 -55 7 -66 9 -12 2
-48 6 -80 10 -33 4 -66 9 -74 11 -14 3 -11 34 22 226 33 201 47 271 79 391
l10 38 57 -6 c75 -8 139 -15 182 -21 115 -16 149 -21 190 -29 53 -11 76 -15
105 -21 17 -3 82 -16 145 -30 138 -29 180 -30 210 -6 44 36 15 112 -48 125
-15 4 -81 18 -147 32 -66 14 -135 28 -154 31 -18 3 -43 8 -55 10 -74 14 -175
30 -251 40 -27 3 -61 8 -75 10 -14 3 -86 7 -160 10 -126 5 -138 4 -179 -17z"/>
<path d="M12523 27978 c-205 -23 -339 -96 -435 -236 -75 -109 -112 -266 -111
-472 1 -78 4 -114 18 -224 8 -56 53 -279 71 -350 9 -36 12 -61 6 -65 -111 -70
-139 -102 -128 -146 12 -46 96 -60 154 -25 35 21 35 21 46 -35 7 -31 9 -40 19
-65 3 -8 17 -46 30 -85 27 -76 73 -169 91 -184 38 -31 116 -9 136 38 9 24 2
55 -59 241 -39 118 -69 215 -68 216 18 14 228 120 337 172 104 48 494 211 497
208 9 -9 86 -252 123 -386 23 -85 46 -163 51 -172 15 -27 68 -38 109 -21 86
35 115 104 115 278 0 136 -6 183 -39 342 -21 105 -22 114 -6 128 9 8 21 15 27
15 6 0 25 13 42 29 58 54 32 118 -51 125 -18 2 -45 -3 -59 -10 -26 -13 -26
-13 -59 64 -41 94 -111 226 -122 230 -4 2 -8 8 -8 14 0 17 -60 90 -139 168
-166 163 -366 234 -588 208z m43 -184 c147 -61 279 -222 420 -509 41 -82 74
-155 74 -161 0 -6 -15 -17 -32 -24 -18 -7 -55 -23 -83 -35 -27 -12 -122 -53
-210 -91 -88 -37 -233 -105 -322 -149 l-162 -81 -6 26 c-15 59 -42 183 -50
230 -3 19 -7 46 -10 60 -17 95 -23 319 -11 395 28 180 103 301 210 339 55 19
135 20 182 0z"/>
<path d="M20414 27941 c-184 -112 -493 -782 -539 -1171 -4 -30 -9 -58 -11 -62
-10 -16 -12 -208 -3 -253 14 -70 47 -132 89 -166 31 -27 87 -47 240 -89 43
-12 407 -100 435 -106 11 -2 111 -26 221 -53 111 -28 212 -48 225 -46 29 5 59
40 59 66 0 11 -7 31 -16 44 -20 30 -61 43 -369 115 -121 29 -283 68 -360 87
-77 19 -149 37 -159 39 -10 2 -34 9 -53 15 -35 11 -35 12 -28 58 5 38 35 159
96 391 11 42 10 38 49 170 38 132 259 791 269 805 18 24 32 95 22 114 -27 50
-117 73 -167 42z"/>
<path d="M21905 27416 c-60 -30 -79 -46 -131 -113 -113 -142 -234 -409 -330
-725 -39 -130 -112 -418 -119 -473 -4 -28 -9 -53 -11 -56 -8 -13 -15 -154 -9
-180 8 -33 53 -69 93 -73 38 -4 69 12 91 48 22 36 172 334 226 452 21 43 55
117 77 164 158 338 368 837 368 874 0 54 -58 93 -147 102 -49 4 -66 1 -108
-20z"/>
<path d="M11020 27409 c-243 -38 -490 -173 -733 -399 -71 -66 -70 -66 -97 3
-29 75 -52 97 -98 97 -112 0 -205 -116 -206 -255 0 -130 29 -224 136 -431 131
-256 326 -568 455 -729 4 -5 33 -41 63 -80 90 -116 197 -227 240 -250 63 -32
140 19 144 96 1 16 34 39 145 100 80 43 146 79 147 79 8 0 279 169 329 205
284 204 381 457 239 623 -29 34 -118 89 -158 96 -6 2 -37 8 -68 15 -134 29
-337 15 -525 -35 -51 -14 -101 -28 -110 -31 -10 -4 21 35 69 86 346 364 451
573 362 718 -42 67 -103 96 -209 98 -44 0 -100 -2 -125 -6z m-65 -209 c52 -20
66 -48 62 -120 -6 -107 -81 -245 -231 -430 -67 -82 -227 -245 -274 -279 l-30
-21 -22 53 c-12 28 -35 79 -50 112 -30 64 -56 123 -100 221 l-28 61 71 64
c112 102 217 187 282 230 33 21 65 42 70 47 9 7 112 53 145 65 25 9 77 8 105
-3z m407 -839 c88 -34 138 -102 138 -188 0 -68 -94 -194 -221 -295 -88 -71
-255 -175 -376 -236 l-62 -32 -34 63 c-107 191 -249 499 -236 512 2 2 49 26
105 53 100 50 269 114 335 127 19 4 52 10 74 14 76 15 215 6 277 -18z"/>
<path d="M22475 27191 c-85 -21 -171 -100 -222 -202 -30 -61 -89 -227 -97
-276 -3 -13 -7 -31 -10 -41 -7 -22 -14 -60 -27 -147 -5 -38 -12 -83 -15 -100
-4 -16 -8 -136 -10 -265 -2 -174 1 -261 12 -335 41 -274 123 -429 259 -491
255 -117 614 110 1129 716 129 152 284 368 312 435 11 28 11 35 -6 63 -20 32
-60 58 -95 62 -56 6 -64 1 -112 -76 -44 -69 -240 -341 -267 -370 -6 -6 -27
-31 -46 -55 -66 -83 -191 -218 -278 -303 -220 -214 -395 -330 -517 -343 -44
-4 -53 -2 -73 19 -36 39 -50 132 -47 303 2 83 6 161 9 175 3 14 14 84 26 155
43 255 142 587 218 730 9 17 16 32 17 35 1 9 59 105 82 136 53 72 12 139 -103
169 -62 16 -91 17 -139 6z"/>
<path d="M9338 26556 c-91 -27 -231 -97 -344 -172 -137 -91 -266 -212 -440
-412 l-29 -33 -20 38 c-41 81 -54 93 -94 93 -25 0 -52 -9 -77 -26 -184 -125
-169 -351 44 -674 31 -47 62 -92 69 -100 7 -8 35 -44 63 -79 188 -238 533
-573 668 -648 62 -36 144 8 154 82 2 13 -27 65 -72 130 -184 271 -262 395
-256 410 5 14 28 26 126 69 85 36 262 79 385 92 46 5 215 5 265 -1 165 -17
312 -62 423 -131 50 -31 65 -36 99 -31 46 6 82 37 92 78 15 66 -155 269 -276
328 -177 88 -386 86 -683 -6 -16 -5 -13 3 15 38 122 152 245 397 274 544 4 17
9 41 11 55 8 40 8 131 -1 175 -8 45 -35 98 -67 133 -64 69 -193 88 -329 48z
m-16 -240 c16 -13 38 -45 50 -72 31 -70 30 -227 -1 -339 -61 -220 -238 -469
-411 -578 l-55 -35 -98 162 c-133 219 -197 328 -197 334 0 14 132 164 245 277
84 85 160 151 215 186 141 92 203 108 252 65z"/>
<path d="M24086 26221 c-4 -6 -15 -11 -25 -11 -32 0 -154 -95 -240 -186 -208
-220 -396 -536 -495 -834 -33 -101 -37 -121 -41 -220 -5 -100 12 -147 66 -196
19 -16 138 -88 265 -159 126 -71 290 -164 364 -208 74 -44 149 -87 165 -97 17
-9 54 -32 83 -49 87 -54 152 -42 152 29 0 37 -23 65 -88 107 -67 42 -41 27
-402 232 -157 89 -292 166 -300 172 -8 5 -25 13 -37 18 -11 6 -24 15 -28 21
-8 12 38 98 182 342 99 168 106 177 126 166 12 -6 171 -100 352 -208 373 -223
404 -240 440 -240 30 0 65 32 65 60 0 44 -25 72 -107 121 -46 27 -88 49 -93
49 -6 0 -10 5 -10 10 0 6 -5 10 -11 10 -6 0 -31 14 -56 30 -24 17 -46 30 -49
30 -2 0 -23 12 -47 27 -23 15 -51 32 -62 38 -20 11 -347 206 -353 211 -4 3 0
10 124 204 54 85 131 199 172 253 l73 97 67 -37 c125 -69 316 -191 472 -300
85 -60 165 -115 178 -122 34 -18 79 -16 102 4 45 41 18 91 -90 168 -159 114
-251 177 -255 177 -3 0 -26 15 -52 34 -73 51 -288 177 -378 221 -64 31 -94 40
-151 43 -46 3 -74 0 -78 -7z"/>
<path d="M7699 25540 c-21 -6 -125 -76 -149 -100 -3 -3 -50 -41 -105 -85 -55
-44 -107 -87 -116 -95 -8 -8 -45 -40 -80 -70 -35 -30 -126 -116 -201 -191
-167 -165 -193 -211 -185 -317 8 -113 68 -247 190 -427 171 -253 479 -537 696
-642 78 -39 105 -47 165 -50 64 -4 76 -1 118 24 25 15 151 130 280 255 128
124 247 239 263 254 17 15 64 59 106 98 41 39 98 92 127 118 29 26 53 53 53
60 1 7 3 23 4 35 1 12 -5 29 -14 37 -45 39 -96 25 -172 -46 -26 -24 -82 -76
-125 -117 -44 -40 -177 -168 -297 -285 -120 -116 -223 -213 -228 -214 -17 -6
-409 402 -409 425 0 5 17 25 39 44 21 19 80 72 131 119 51 47 104 96 119 109
88 80 245 226 308 286 95 92 112 144 55 177 -43 26 -92 3 -186 -89 -44 -43
-87 -85 -96 -93 -8 -8 -67 -62 -130 -120 -63 -58 -137 -126 -165 -152 -27 -25
-61 -56 -75 -68 -14 -12 -43 -39 -66 -60 l-41 -38 -142 164 c-149 172 -271
329 -271 349 0 25 279 275 522 468 149 119 179 156 162 201 -10 25 -55 44 -85
36z"/>
<path d="M25516 25268 c-83 -18 -192 -87 -293 -187 -239 -234 -634 -904 -667
-1130 -4 -30 0 -40 33 -73 64 -63 98 -54 177 47 66 84 214 263 288 347 39 45
41 46 66 31 14 -8 43 -38 66 -67 148 -187 252 -409 301 -638 17 -84 24 -320
11 -383 -4 -16 -12 -55 -19 -87 -12 -54 -12 -58 11 -92 27 -38 57 -56 95 -56
33 0 133 112 179 200 62 118 81 265 50 396 -15 66 -43 151 -61 186 -7 15 -12
29 -11 30 2 2 -7 17 -20 35 -12 17 -22 34 -22 38 0 4 -22 40 -49 81 -28 41
-48 74 -47 74 2 0 35 -12 72 -26 323 -122 639 -143 815 -54 44 23 96 81 116
129 22 51 12 151 -22 225 -41 92 -79 142 -210 272 -167 166 -326 270 -628 409
l-38 18 41 38 c89 83 71 149 -58 214 -58 29 -114 36 -176 23z m102 -408 c9 -5
49 -24 87 -41 393 -174 646 -376 604 -486 -56 -148 -369 -212 -654 -134 -168
46 -318 120 -407 201 l-49 45 33 36 c18 20 53 58 77 85 24 27 85 94 136 149
51 55 103 112 116 127 27 31 32 32 57 18z"/>
<path d="M6184 24331 c-34 -21 -97 -101 -115 -147 -15 -39 -20 -68 -23 -138
-11 -209 164 -494 482 -789 l51 -47 -85 -178 c-125 -258 -128 -264 -192 -414
l-59 -136 -34 26 c-19 14 -36 29 -39 32 -3 3 -45 39 -95 80 -311 257 -582 508
-662 613 -45 58 -47 59 -86 54 -52 -7 -90 -45 -134 -133 -36 -73 -41 -114 -28
-201 3 -23 12 -55 20 -70 8 -15 15 -31 15 -35 0 -20 74 -112 145 -183 88 -87
188 -162 330 -248 98 -60 402 -225 450 -245 26 -11 30 -18 32 -51 4 -104 85
-136 196 -80 32 17 44 18 71 9 82 -27 129 -18 164 29 46 63 39 100 -28 155
-67 55 -71 58 -133 99 l-57 37 24 64 c55 144 189 433 299 642 l16 32 103 -68
c192 -126 337 -187 469 -197 91 -7 116 -2 151 29 37 34 51 65 44 104 -6 29
-12 35 -49 44 -23 6 -51 14 -62 17 -81 22 -285 191 -458 380 l-29 31 42 88
c63 132 129 301 136 345 12 73 -50 103 -122 59 -25 -16 -38 -37 -59 -93 -40
-107 -96 -241 -106 -251 -6 -6 -14 -4 -21 6 -258 331 -425 592 -444 696 -10
53 -63 68 -120 33z"/>
<path d="M26851 24087 c-26 -13 -39 -44 -97 -237 -69 -226 -105 -355 -119
-420 -2 -8 -12 -53 -23 -100 -11 -47 -27 -123 -36 -170 -9 -47 -18 -94 -20
-105 -2 -11 -6 -47 -10 -80 -11 -101 -16 -115 -37 -115 -33 0 -169 -30 -259
-56 -102 -31 -222 -93 -267 -139 -29 -30 -31 -36 -23 -71 11 -46 59 -94 95
-94 14 0 52 9 85 20 33 11 77 22 97 25 21 2 56 7 78 10 22 3 67 8 100 11 66 6
528 5 640 -1 308 -17 639 -22 730 -10 100 13 158 35 198 76 34 37 37 45 37 97
0 68 -31 141 -85 200 -44 50 -74 57 -149 38 -31 -8 -92 -20 -134 -25 -71 -9
-128 -13 -427 -26 -254 -11 -344 -15 -422 -20 l-81 -5 4 32 c3 18 9 56 14 83
5 28 11 61 14 75 20 124 213 788 246 851 12 22 8 55 -14 96 -27 53 -93 82
-135 60z"/>
<path d="M22699 23414 c-78 -15 -140 -44 -184 -87 -33 -33 -90 -117 -79 -117
4 0 2 -6 -4 -13 -28 -33 -40 -163 -28 -287 11 -113 21 -111 20 5 -5 275 84
429 278 482 35 9 65 18 67 20 13 9 -11 9 -70 -3z"/>
<path d="M23633 23274 c5 -16 34 -129 42 -159 2 -12 6 -22 55 -150 37 -96 80
-238 85 -280 1 -11 3 -20 5 -20 1 0 4 -16 7 -35 9 -67 23 -67 18 0 -8 111 -52
285 -95 375 -24 52 -87 214 -96 249 -3 14 -11 29 -16 32 -6 4 -8 -1 -5 -12z"/>
<path d="M22715 23256 c-71 -24 -99 -44 -135 -98 -34 -51 -35 -57 -35 -143 0
-73 6 -106 30 -175 16 -47 39 -102 52 -122 13 -21 23 -42 23 -47 0 -5 4 -11 8
-13 5 -1 20 -20 34 -41 24 -35 109 -131 224 -252 99 -104 137 -151 159 -199
28 -58 24 -76 -19 -76 -24 0 -42 11 -80 50 -27 27 -68 59 -93 71 -38 18 -48
20 -74 9 -41 -17 -63 -53 -54 -87 8 -34 65 -156 75 -163 19 -12 80 -171 80
-207 0 -32 -5 -42 -30 -56 -29 -17 -31 -17 -72 2 -39 18 -98 63 -98 74 0 3
-39 46 -87 96 -84 88 -128 121 -162 121 -24 -1 -75 -33 -81 -50 -7 -22 -5
-110 3 -145 8 -36 39 -95 49 -95 5 0 8 -9 8 -20 0 -11 4 -20 8 -20 4 0 21 -20
36 -44 16 -25 37 -53 47 -62 10 -9 19 -25 19 -36 0 -10 6 -18 13 -18 7 0 55
-40 106 -90 51 -49 97 -90 102 -90 18 0 69 -94 69 -127 0 -35 -43 -134 -66
-154 -24 -19 -6 -27 38 -17 69 16 224 5 256 -19 15 -11 58 -34 96 -51 54 -25
81 -32 131 -32 60 0 65 2 94 35 41 47 42 100 4 147 -16 18 -31 34 -35 36 -3 2
-16 11 -27 22 -26 22 -132 73 -269 130 -106 44 -158 85 -129 102 8 4 48 11 88
14 120 11 126 19 82 112 -31 67 -31 68 -39 108 -5 25 -2 32 14 36 27 8 147
-17 233 -47 79 -27 144 -32 171 -12 26 20 19 127 -14 197 -59 125 -69 153 -60
162 13 13 78 27 124 28 58 0 127 22 159 51 62 55 72 142 39 336 -11 65 -23
136 -25 158 -2 22 -11 65 -20 95 -14 53 -22 86 -46 210 -6 30 -15 60 -20 66
-6 7 -11 20 -14 30 -5 28 -27 74 -22 49 8 -44 -11 -303 -27 -355 -9 -30 -16
-58 -16 -62 0 -4 -9 -22 -20 -40 -11 -18 -24 -43 -29 -55 -11 -24 -59 -53 -89
-53 -20 0 -73 36 -70 48 1 4 -8 27 -21 51 -12 24 -24 51 -26 61 -2 10 -12 37
-23 61 -11 24 -23 55 -27 69 -4 14 -19 42 -31 62 -13 21 -24 42 -24 48 0 6
-12 29 -26 52 -14 23 -27 46 -28 52 -2 11 -14 32 -62 106 -66 104 -181 202
-257 220 -50 11 -43 12 -92 -4z"/>
<path d="M23849 22108 c-1 -38 -2 -71 -3 -75 -1 -5 -6 -24 -10 -43 -11 -44
-52 -99 -84 -111 -35 -14 -22 -20 17 -9 40 11 88 62 100 105 10 38 6 142 -8
175 -8 21 -10 14 -12 -42z"/>
<path d="M11528 22124 c-36 -58 -51 -125 -46 -202 8 -101 37 -153 142 -252
245 -231 348 -357 375 -455 23 -88 -12 -171 -62 -148 -17 8 -40 43 -71 103
-74 148 -139 226 -231 280 -68 40 -227 29 -242 -16 -2 -6 17 -17 42 -24 57
-16 113 -75 142 -150 12 -30 41 -118 63 -195 127 -433 268 -645 496 -746 63
-29 169 -31 211 -4 92 58 135 160 132 315 -1 52 -8 120 -15 152 -29 122 -140
320 -243 432 -36 38 -36 38 -6 20 65 -39 146 -106 195 -161 54 -60 164 -219
175 -252 3 -11 12 -22 20 -25 44 -17 -23 200 -99 319 -18 28 -38 61 -45 74
-11 20 -11 22 6 13 27 -15 155 -153 180 -196 29 -48 62 -156 70 -229 3 -32 10
-60 15 -63 5 -3 24 27 42 68 33 72 56 175 55 253 0 66 -28 201 -52 253 -70
151 -229 300 -352 328 -28 7 -27 4 30 -58 66 -72 109 -144 119 -198 l6 -35
-17 31 c-68 120 -202 253 -332 331 -88 52 -205 105 -321 143 -68 22 -129 45
-134 50 -6 6 -17 10 -26 10 -9 0 -25 9 -36 21 -10 12 -31 27 -47 35 -37 19
-75 82 -88 146 -6 29 -15 57 -19 62 -5 4 -19 -9 -32 -30z"/>
<path d="M22272 21960 c-47 -59 -65 -118 -59 -190 10 -124 80 -246 212 -372
36 -34 74 -61 208 -145 44 -28 46 -48 13 -115 -32 -66 -17 -61 19 6 41 77 33
94 -80 170 -83 56 -188 152 -242 222 -34 44 -91 156 -99 195 -19 92 -1 180 49
237 11 12 16 22 11 21 -5 0 -19 -13 -32 -29z"/>
<path d="M23305 21492 c6 -40 -8 -101 -24 -102 -3 -1 -19 -12 -35 -25 l-30
-24 40 9 c55 13 88 53 81 101 -3 21 -13 48 -22 61 -16 23 -17 22 -10 -20z"/>
<path d="M21550 21205 c-7 -8 -21 -15 -31 -15 -11 0 -24 -10 -30 -22 -9 -20
-62 -61 -121 -93 -9 -5 -18 -19 -20 -30 -2 -15 -14 -22 -53 -29 -61 -11 -58
-9 -59 -43 -1 -30 -43 -86 -58 -77 -4 3 -8 -3 -8 -13 -1 -30 -69 -93 -109 -99
-16 -3 -57 -50 -66 -76 -4 -10 -13 -18 -21 -18 -8 0 -19 -11 -25 -24 -6 -13
-22 -29 -35 -35 -13 -6 -24 -14 -24 -19 0 -5 -11 -22 -25 -38 -14 -16 -25 -32
-25 -36 0 -5 -3 -7 -7 -7 -27 4 -53 -3 -53 -15 0 -14 -24 -29 -50 -30 -8 -1
-17 -12 -20 -26 -7 -33 -58 -90 -82 -90 -10 0 -18 -5 -18 -12 0 -15 -56 -65
-92 -80 -15 -7 -28 -19 -28 -25 0 -7 -4 -13 -10 -13 -5 0 -12 -11 -16 -25 -4
-14 -8 -24 -11 -22 -2 3 -32 -24 -65 -59 -34 -35 -64 -62 -66 -59 -10 10 -61
-26 -67 -47 -12 -38 -66 -79 -97 -75 -16 2 -29 0 -29 -5 -1 -4 -3 -12 -4 -18
-1 -5 -3 -19 -4 -31 -1 -14 -6 -19 -16 -15 -10 3 -15 -1 -15 -12 0 -9 -11 -27
-25 -40 -13 -13 -25 -33 -27 -45 -2 -16 -9 -21 -26 -20 -12 2 -22 -2 -22 -8 0
-14 -26 -39 -40 -39 -6 0 -15 -10 -21 -23 -6 -13 -28 -31 -50 -40 -21 -9 -39
-23 -39 -29 -1 -31 -70 -76 -112 -74 -18 1 -24 -2 -18 -8 28 -28 -5 -71 -34
-47 -11 9 -16 9 -22 0 -4 -8 -3 -9 4 -5 8 5 12 -2 12 -18 0 -14 -3 -26 -7 -26
-13 0 -163 -147 -163 -159 0 -7 -8 -15 -18 -19 -52 -21 -112 -69 -122 -99 -7
-18 -18 -33 -26 -33 -8 0 -17 -7 -20 -15 -4 -8 -11 -15 -16 -15 -6 0 -19 -11
-30 -25 -14 -18 -26 -24 -39 -20 -18 6 -67 -14 -68 -27 -1 -5 -1 -12 -1 -17 0
-5 -17 -16 -37 -24 -36 -14 -83 -64 -83 -87 0 -6 -7 -25 -16 -42 -12 -24 -21
-29 -40 -25 -26 5 -54 -27 -54 -63 0 -11 -6 -20 -14 -20 -8 0 -17 -7 -20 -16
-4 -12 -15 -15 -36 -12 -21 3 -35 -1 -48 -15 -9 -10 -16 -21 -14 -23 8 -13 -1
-36 -15 -41 -10 -4 -23 -14 -30 -22 -7 -9 -13 -12 -13 -6 0 5 -12 -8 -26 -29
-44 -64 -66 -86 -89 -86 -11 0 -28 -8 -37 -17 -8 -10 -33 -34 -55 -53 -22 -19
-45 -45 -52 -57 -16 -31 -81 -63 -139 -68 -38 -4 -53 -12 -79 -39 -18 -19 -35
-46 -38 -61 -3 -14 -7 -36 -10 -49 -3 -17 -14 -26 -35 -31 -16 -4 -30 -11 -30
-16 0 -20 -82 -90 -98 -85 -24 8 -37 -3 -62 -52 -20 -39 -44 -57 -102 -76 -10
-3 -25 -22 -35 -43 -14 -28 -25 -39 -46 -41 -16 -2 -27 -9 -27 -18 0 -21 -23
-42 -54 -50 -25 -6 -69 -50 -116 -118 -14 -19 -47 -51 -75 -71 -27 -19 -74
-55 -104 -79 -30 -25 -58 -43 -62 -40 -4 2 -10 -4 -13 -14 -9 -28 -75 -87 -85
-76 -4 5 -22 34 -38 64 -29 53 -46 84 -95 168 -12 20 -28 48 -36 62 -7 14 -24
42 -35 62 -12 20 -60 103 -107 184 -47 82 -89 156 -95 166 -31 53 -254 438
-274 472 -23 39 -32 56 -82 144 -12 20 -30 51 -40 67 -11 17 -24 41 -31 55 -6
14 -17 32 -24 40 -6 8 -25 40 -41 70 -17 30 -40 72 -52 93 -11 20 -31 54 -42
75 -12 20 -29 49 -38 64 -36 59 -91 157 -101 179 -6 13 -22 42 -35 64 -13 22
-34 58 -47 80 -12 22 -30 54 -39 70 -10 17 -26 47 -36 68 -10 20 -21 37 -25
37 -5 0 -8 4 -8 9 0 5 -23 49 -51 98 -28 48 -61 106 -74 128 -12 22 -32 58
-45 80 -12 22 -30 51 -40 65 -9 14 -30 49 -45 78 -29 53 -43 62 -67 39 -7 -7
-35 -26 -63 -42 -27 -17 -59 -36 -70 -43 -11 -6 -36 -21 -57 -32 l-36 -19 -42
69 -42 70 28 23 c16 12 39 32 52 44 12 12 22 20 22 17 0 -3 20 15 44 40 24 25
46 42 50 39 16 -17 2 13 -39 79 -41 69 -43 74 -25 82 11 5 20 14 20 20 0 12
-65 113 -84 131 -45 43 -102 33 -187 -32 -31 -23 -59 -39 -63 -36 -3 4 -6 1
-6 -5 0 -7 -19 -24 -42 -39 -24 -16 -48 -32 -54 -38 -7 -5 -28 -23 -48 -40
-21 -16 -54 -45 -74 -62 -20 -18 -45 -35 -54 -39 -10 -3 -18 -9 -18 -14 0 -5
-9 -12 -20 -15 -11 -3 -20 -12 -20 -18 0 -7 -13 -18 -28 -25 -16 -6 -37 -20
-48 -30 -10 -10 -35 -27 -54 -39 -20 -12 -46 -33 -59 -47 -13 -14 -28 -23 -34
-19 -6 3 -8 2 -5 -3 3 -5 0 -15 -8 -22 -12 -11 -16 -9 -23 10 -7 19 -23 80
-26 98 0 3 -3 10 -7 16 -4 6 -10 30 -14 52 -4 23 -10 42 -13 42 -4 0 -7 8 -8
18 -3 42 -46 151 -85 217 -48 82 -111 147 -193 201 -33 21 -63 43 -66 47 -3 5
-10 9 -15 9 -5 0 -20 5 -34 10 -68 27 -137 45 -162 43 -15 -1 -28 2 -28 7 0 7
-5 6 -13 -1 -10 -8 -17 -7 -25 1 -7 7 -12 8 -12 3 0 -6 -26 -10 -58 -9 -54 1
-163 -30 -170 -48 -2 -4 -10 -8 -17 -8 -8 0 -18 -6 -22 -13 -4 -7 -22 -19 -39
-26 -18 -7 -40 -20 -50 -30 -11 -9 -36 -29 -56 -45 -21 -15 -35 -32 -32 -37 3
-5 1 -9 -4 -9 -5 0 -17 -17 -28 -37 -10 -21 -22 -40 -26 -43 -15 -12 -58 -160
-54 -189 2 -17 0 -31 -3 -31 -4 0 -6 -12 -5 -27 1 -33 -15 -63 -35 -63 -13 0
-158 -102 -171 -120 -3 -4 -30 -24 -60 -44 -109 -72 -150 -103 -143 -109 3 -4
1 -7 -6 -7 -11 0 -83 -46 -116 -72 -5 -5 -50 -38 -100 -73 -49 -35 -97 -70
-105 -77 -8 -8 -28 -22 -45 -33 -16 -10 -34 -25 -39 -34 -26 -43 13 -149 71
-194 29 -24 44 -39 63 -67 8 -12 26 -35 39 -51 24 -29 24 -29 38 -9 19 27 32
25 63 -10 27 -31 31 -80 6 -80 -6 0 -17 -9 -23 -19 -11 -17 -8 -28 14 -69 17
-31 32 -48 40 -45 7 3 13 9 13 13 0 5 12 7 28 4 68 -12 112 -131 58 -155 -30
-14 -28 -20 41 -122 29 -44 58 -95 65 -113 7 -19 15 -34 19 -34 4 0 15 -20 25
-45 9 -25 20 -45 25 -45 5 0 6 -6 3 -13 -3 -8 70 -144 162 -303 91 -159 175
-304 185 -321 11 -18 27 -48 38 -65 10 -18 40 -69 66 -113 44 -74 71 -120 99
-170 13 -22 71 -121 97 -163 16 -26 37 -64 78 -136 11 -19 32 -53 46 -76 14
-23 35 -57 46 -76 10 -19 28 -50 39 -69 11 -19 30 -52 41 -72 12 -21 29 -50
38 -65 39 -66 339 -586 371 -644 20 -34 39 -66 44 -71 4 -4 14 -21 22 -38 8
-16 22 -43 33 -60 10 -16 28 -47 40 -67 11 -21 30 -54 41 -73 11 -19 30 -52
41 -72 12 -21 29 -50 38 -65 16 -26 148 -256 192 -333 12 -22 29 -52 36 -67 8
-15 18 -30 24 -33 15 -10 10 -22 -12 -28 -13 -4 -18 -10 -14 -18 6 -9 1 -10
-19 -7 -14 3 -26 2 -26 -1 0 -4 -22 -30 -50 -58 -27 -28 -50 -48 -50 -45 0 3
-5 1 -12 -6 -16 -16 -24 -15 -45 7 -27 29 -51 12 -30 -20 14 -21 14 -28 1 -57
-7 -18 -18 -31 -23 -27 -6 3 -15 -4 -21 -15 -6 -11 -29 -32 -51 -45 -21 -14
-52 -38 -67 -54 -24 -26 -63 -41 -112 -43 -8 0 -19 -4 -25 -8 -5 -5 -27 -11
-47 -15 -21 -4 -38 -11 -38 -15 0 -8 -54 -29 -83 -34 -7 -1 -18 -5 -24 -9 -17
-11 -46 -16 -97 -18 -22 -1 -55 -10 -72 -21 -17 -10 -47 -18 -67 -18 -25 0
-45 -8 -63 -25 -15 -14 -38 -25 -53 -24 -30 1 -51 -4 -67 -13 -6 -4 -28 -8
-48 -10 -21 -1 -40 -6 -42 -10 -3 -4 -13 -8 -23 -8 -10 0 -24 -7 -31 -15 -7
-9 -23 -13 -38 -10 -13 2 -38 -3 -54 -11 -16 -9 -36 -13 -44 -10 -27 10 -90
-17 -110 -47 -15 -22 -28 -30 -59 -33 -41 -4 -80 -11 -80 -15 0 -1 -9 -3 -20
-4 -55 -7 -87 -14 -98 -23 -14 -11 -116 -31 -177 -34 -8 -1 -20 -8 -26 -17
-10 -13 -44 -20 -106 -22 -10 0 -18 -4 -18 -9 0 -8 -82 -29 -110 -28 -34 2
-50 -3 -50 -16 0 -19 -26 -29 -77 -30 -23 -1 -45 -5 -49 -9 -4 -4 -33 -7 -65
-7 -50 0 -60 -3 -76 -26 -14 -19 -29 -26 -60 -28 -23 -1 -48 -8 -56 -15 -9 -7
-39 -12 -68 -13 -29 0 -63 -6 -75 -14 -12 -8 -34 -17 -49 -20 -15 -3 -33 -6
-39 -7 -6 -1 -13 -4 -16 -7 -3 -3 -36 -11 -74 -17 -38 -7 -72 -17 -76 -23 -4
-6 -22 -12 -41 -12 -19 -1 -36 -4 -39 -7 -7 -10 -76 -41 -89 -41 -6 0 -11 -4
-11 -9 0 -8 -32 -24 -52 -26 -12 0 -21 -15 -9 -15 9 0 10 -13 5 -47 -11 -78
-29 -96 -72 -70 -19 12 -52 -2 -52 -23 0 -23 -52 -32 -87 -13 -14 7 -32 13
-39 13 -8 0 -23 9 -35 21 l-21 21 -27 -26 c-26 -25 -71 -36 -71 -17 0 5 -19
11 -41 15 -33 5 -44 3 -54 -10 -12 -17 -56 -21 -95 -9 -17 5 -23 0 -31 -25
-11 -29 -15 -31 -53 -29 -22 1 -53 -3 -67 -9 -14 -6 -47 -13 -72 -17 -26 -4
-47 -12 -47 -17 0 -19 -26 -33 -67 -35 -23 -1 -53 -9 -68 -19 -18 -12 -37 -15
-66 -11 -51 7 -69 0 -69 -24 0 -23 -36 -33 -96 -26 -33 3 -44 1 -44 -9 0 -14
-28 -29 -66 -36 -9 -2 -31 -16 -48 -33 -37 -36 -94 -58 -138 -53 -32 3 -33 2
-41 -46 -4 -27 -14 -54 -22 -60 -16 -12 -29 -103 -16 -110 4 -3 14 -44 21 -91
7 -47 17 -85 21 -85 10 0 99 -89 99 -99 0 -4 8 -7 18 -8 9 0 52 -8 95 -17 44
-9 91 -13 105 -10 44 10 113 12 141 5 36 -9 89 -2 70 9 -11 8 -10 12 6 25 20
16 103 15 211 -1 26 -4 44 -2 48 5 9 13 56 14 90 2 17 -7 26 -7 29 2 2 8 26
12 63 12 54 0 59 2 62 23 2 12 8 22 13 22 6 0 7 5 3 12 -5 8 0 9 17 4 13 -5
39 -10 57 -13 30 -5 32 -4 32 26 0 17 1 31 3 31 1 0 34 -7 72 -15 96 -20 98
-20 92 11 -5 30 3 35 70 37 44 2 48 4 51 30 5 41 32 50 110 38 77 -13 121 -9
133 10 8 14 14 12 79 -15 10 -4 19 3 28 22 6 16 27 35 45 43 35 16 37 16 85 5
20 -5 38 -4 46 3 11 10 51 14 96 11 8 -1 32 1 54 5 23 3 44 1 52 -6 11 -9 14
-7 14 10 0 13 4 19 10 16 6 -4 18 -1 27 7 12 10 17 10 20 1 2 -7 11 -9 19 -6
8 3 23 -2 33 -11 15 -14 23 -15 47 -5 16 7 34 11 41 10 7 -1 18 7 25 19 17 26
43 25 63 -2 16 -23 16 -23 31 -3 11 15 18 17 32 9 37 -23 25 -47 -52 -104 -41
-30 -81 -65 -87 -78 -7 -12 -17 -21 -23 -19 -6 2 -23 -9 -38 -25 -15 -16 -30
-28 -33 -27 -10 2 -55 -40 -55 -51 0 -5 -6 -10 -13 -10 -8 0 -40 -25 -73 -55
-32 -30 -63 -55 -67 -55 -4 0 -20 -11 -35 -25 -15 -14 -36 -28 -47 -31 -10 -4
-32 -19 -47 -34 -27 -28 -73 -36 -73 -12 0 6 -4 12 -10 13 -15 0 -19 -33 -5
-41 8 -5 10 -16 6 -25 -3 -10 -9 -15 -13 -11 -3 3 -11 -4 -17 -15 -6 -12 -13
-20 -16 -18 -6 4 -45 -27 -73 -58 -11 -13 -26 -23 -32 -23 -6 0 -25 -13 -43
-30 -18 -16 -43 -30 -55 -30 -15 0 -31 -14 -50 -42 -15 -23 -27 -39 -27 -34 0
10 -56 -29 -95 -66 -87 -82 -155 -155 -160 -170 -4 -10 -14 -18 -23 -18 -9 -1
-34 -21 -55 -45 -35 -41 -38 -48 -32 -87 10 -77 16 -96 30 -101 7 -3 16 -19
20 -36 3 -16 13 -35 21 -42 8 -6 14 -17 14 -25 0 -7 7 -17 17 -22 10 -6 14
-16 10 -26 -4 -9 -1 -16 6 -16 11 0 33 -26 34 -40 1 -7 84 -90 167 -167 55
-51 74 -63 113 -69 30 -4 53 -3 65 5 11 7 27 9 37 6 12 -4 21 2 29 20 13 28
60 45 72 25 6 -10 14 -2 27 25 10 21 27 43 38 49 11 6 22 13 25 16 27 28 74
59 81 54 6 -3 16 0 24 6 8 6 18 9 24 6 11 -7 61 14 61 25 0 5 6 6 14 3 10 -4
12 2 8 21 -4 25 -2 27 25 24 18 -2 37 3 47 14 10 9 15 17 12 17 -3 0 1 17 8
38 14 39 17 40 111 42 20 1 55 32 55 50 0 5 5 10 10 10 6 0 21 12 34 27 22 25
26 26 51 15 24 -11 27 -10 32 8 3 11 10 20 16 20 6 0 8 3 4 6 -7 7 22 39 35
39 5 0 14 11 21 25 7 14 27 30 44 35 17 6 63 43 103 83 39 39 79 73 88 74 46
4 92 19 92 30 0 14 26 38 41 38 7 0 20 6 28 14 18 16 95 23 123 11 13 -5 20
-1 25 11 11 29 77 115 122 159 23 21 41 45 41 51 0 20 79 82 105 82 13 0 47
14 76 32 29 18 60 33 68 35 8 1 17 7 19 13 2 7 12 12 23 12 10 0 28 9 39 20
11 11 23 20 28 19 4 0 9 8 11 18 1 10 9 25 17 34 18 21 83 42 114 37 18 -2 37
9 70 40 25 24 44 48 42 53 -1 5 11 12 28 15 16 4 30 10 30 15 0 5 5 9 10 9 6
0 25 15 43 34 21 23 41 34 59 34 27 0 138 67 138 83 0 4 17 18 37 30 21 13 54
40 75 61 21 21 43 38 49 38 7 0 32 16 55 36 24 19 44 32 44 28 0 -4 14 7 30
25 17 17 33 31 36 31 4 0 12 7 18 15 6 9 31 18 54 20 48 5 72 23 72 54 0 14 9
23 25 27 19 5 23 10 16 18 -12 14 12 56 32 56 7 0 33 11 60 25 26 14 47 23 47
20 0 -19 31 29 37 55 6 31 7 32 54 28 39 -4 52 -1 66 14 11 13 25 17 39 14 13
-4 25 -2 28 3 6 9 58 1 91 -16 17 -8 40 -10 48 -3 1 1 10 3 21 5 10 2 37 13
60 24 22 11 56 26 74 33 17 7 32 17 32 21 0 11 78 6 107 -6 16 -7 29 -6 46 5
42 28 60 26 85 -10 12 -18 22 -37 22 -41 0 -5 9 -20 20 -33 11 -14 36 -57 56
-94 48 -94 221 -399 295 -522 9 -15 26 -44 38 -64 11 -21 30 -54 41 -73 11
-19 30 -52 41 -72 12 -21 29 -50 38 -65 18 -30 118 -203 150 -260 12 -21 31
-55 43 -75 11 -21 26 -47 32 -58 6 -11 19 -31 27 -45 9 -14 76 -128 149 -255
73 -126 142 -246 154 -266 63 -108 202 -339 221 -369 13 -19 34 -55 48 -80 13
-25 34 -62 46 -82 11 -21 30 -54 41 -73 11 -19 29 -52 41 -72 43 -78 104 -124
124 -96 6 8 17 15 25 17 39 8 76 20 87 28 7 5 16 7 20 5 5 -3 22 0 38 7 17 7
32 13 35 12 3 -1 21 10 40 24 19 14 37 25 40 25 24 2 68 20 83 32 9 9 20 13
23 10 4 -4 18 3 32 13 13 11 29 20 34 20 6 0 22 9 38 20 15 11 29 17 32 14 3
-2 11 2 18 11 7 8 20 15 29 15 9 0 21 4 26 9 10 9 84 49 245 133 52 28 100 53
105 58 6 4 35 21 65 37 30 17 71 40 90 51 19 12 46 27 60 34 14 7 37 20 53 31
15 10 27 16 27 12 0 -3 16 6 35 21 19 14 35 23 35 20 0 -4 15 4 33 18 19 15
39 26 44 26 6 0 16 7 23 16 8 8 27 22 44 30 17 7 49 25 71 39 22 14 50 29 62
35 11 5 24 14 28 20 3 5 23 19 43 30 20 11 51 29 67 39 33 20 99 58 130 75 11
6 35 21 53 34 17 13 32 20 32 16 0 -4 16 7 35 26 19 19 35 31 35 26 0 -4 15 5
34 19 19 15 37 25 40 23 2 -2 16 7 30 20 15 12 29 22 33 22 3 0 21 11 39 25
18 14 37 25 43 25 5 0 18 11 28 24 10 13 48 43 84 68 93 64 160 138 166 185 5
38 -9 66 -108 231 -9 15 -26 44 -38 65 -11 20 -30 53 -41 72 -11 19 -30 52
-41 73 -12 20 -30 51 -40 67 -11 17 -24 41 -31 55 -6 14 -17 32 -24 40 -6 8
-25 40 -41 70 -17 30 -40 72 -52 93 -11 20 -31 54 -42 75 -12 20 -29 49 -38
64 -9 14 -63 109 -121 209 -58 101 -109 191 -115 201 -85 145 -139 244 -137
251 1 4 -2 7 -6 7 -7 0 -33 43 -37 60 0 3 -8 16 -17 30 -19 31 -158 272 -158
275 0 2 42 3 93 3 135 0 149 1 143 11 -9 14 3 38 20 38 8 0 25 -10 38 -22 l24
-22 13 24 c12 23 16 24 92 19 43 -3 97 -11 119 -17 26 -7 43 -7 47 -1 4 6 25
6 56 1 28 -4 55 -8 61 -8 17 -1 24 60 7 66 -7 3 -13 13 -13 23 0 15 6 17 43
13 23 -3 49 -12 58 -19 8 -8 29 -14 45 -13 16 0 24 3 17 5 -9 4 -9 11 -1 28 9
21 16 23 77 22 36 -1 77 2 91 8 14 5 32 11 40 13 74 15 81 15 94 -2 9 -13 15
-15 20 -7 12 19 33 14 39 -10 6 -21 8 -20 40 15 25 26 40 34 56 30 11 -3 21
-12 21 -19 0 -20 16 -17 44 7 15 13 29 42 37 73 15 66 17 68 40 55 16 -8 29
-5 66 16 32 17 50 22 57 15 12 -12 76 -13 76 -1 0 5 16 15 37 22 62 20 91 54
99 115 3 30 10 54 14 54 4 0 15 16 26 35 10 19 22 35 27 35 4 0 6 4 3 9 -7 11
72 93 83 86 5 -3 17 15 27 40 9 25 23 45 30 45 21 0 84 41 78 51 -3 5 0 9 5 9
18 0 12 29 -8 40 -11 5 -20 18 -20 28 1 34 -7 49 -44 87 -33 34 -41 53 -40 93
1 6 -3 12 -8 12 -5 0 -9 6 -9 13 0 6 -14 21 -30 32 -23 15 -30 28 -30 51 0 19
-6 34 -15 38 -8 3 -15 13 -15 23 0 18 -32 76 -53 98 -7 6 -22 17 -35 24 -12 6
-22 21 -22 32 0 12 -10 35 -22 52 -12 18 -22 33 -23 35 -2 1 -14 -3 -29 -9
-21 -10 -37 -32 -41 -59 0 -3 -6 -14 -12 -25 -11 -19 -12 -19 -42 10 -28 26
-33 28 -47 13 -22 -21 -85 -8 -118 25 -15 15 -34 27 -43 27 -8 0 -39 13 -68
30 -28 16 -55 27 -58 23 -4 -3 -7 -1 -7 5 0 7 -11 12 -24 12 -13 0 -37 7 -52
15 -16 8 -40 13 -54 10 -14 -3 -44 -7 -67 -9 -23 -2 -48 -8 -55 -12 -14 -10
-22 -11 -123 -19 -81 -6 -103 -9 -128 -20 -10 -4 -21 -5 -24 -2 -3 4 -13 -8
-22 -26 -16 -32 -17 -32 -83 -31 -66 2 -67 1 -77 -28 -6 -17 -8 -35 -5 -40 8
-13 -15 -28 -31 -22 -7 3 -10 15 -8 28 3 13 0 26 -5 30 -13 8 -61 -13 -84 -36
-14 -14 -30 -16 -83 -12 -36 2 -74 0 -85 -6 -12 -7 -21 -7 -25 0 -10 15 -55
12 -72 -6 -12 -11 -31 -15 -72 -12 l-56 3 -3 -33 c-4 -37 -29 -52 -85 -52 -39
0 -52 -8 -62 -38 -4 -14 -12 -21 -20 -18 -8 3 -30 8 -49 12 -36 6 -36 6 -36
-29 0 -20 -5 -48 -12 -62 -10 -22 -17 -26 -40 -23 -15 3 -29 0 -31 -5 -5 -15
-67 3 -67 19 0 7 -14 21 -30 29 -17 9 -28 20 -25 25 13 22 -38 2 -61 -23 -20
-22 -34 -27 -69 -27 -33 0 -45 -4 -45 -15 0 -24 -17 -17 -33 13 -7 15 -23 44
-35 65 -12 20 -32 54 -44 75 -12 20 -28 49 -35 64 -8 15 -18 30 -24 33 -20 13
-7 34 24 40 60 12 86 27 96 55 5 16 7 30 5 33 -5 5 77 47 98 51 7 1 22 7 33
13 11 5 32 13 48 17 15 3 27 10 27 15 0 4 11 6 25 3 14 -2 25 0 25 6 0 6 10
12 23 14 18 2 22 9 20 32 -3 35 12 66 31 66 8 0 26 20 40 44 14 24 31 44 38
43 52 -2 66 4 72 29 5 19 12 25 25 21 19 -5 51 24 51 46 0 7 18 28 39 46 22
19 48 53 58 75 22 50 89 116 123 122 82 14 90 17 90 32 0 9 5 31 12 49 11 30
16 34 44 31 34 -3 98 38 108 69 8 23 82 76 98 71 7 -3 21 4 32 13 10 10 23 16
28 13 10 -6 28 39 28 71 0 20 24 44 50 51 3 0 13 4 23 8 9 5 26 6 37 3 11 -3
23 -1 26 4 3 5 10 7 15 4 5 -4 9 -1 9 4 0 6 6 11 14 11 9 0 12 7 9 20 -6 22
14 53 28 44 5 -3 14 8 20 25 6 17 15 31 20 31 5 0 9 9 9 20 0 25 48 73 66 66
7 -3 15 2 18 10 3 8 16 14 30 14 16 0 27 7 31 20 4 11 10 18 15 15 11 -7 102
83 96 94 -8 13 51 51 79 51 15 0 25 6 25 14 0 8 9 18 21 21 32 10 67 40 109
94 14 18 35 43 48 56 12 13 22 28 22 34 0 5 9 13 20 16 11 4 18 11 15 16 -4 5
3 9 14 9 12 0 21 5 21 10 0 6 8 10 18 10 20 0 62 39 62 57 0 19 70 73 94 73
13 0 31 9 41 20 10 11 22 17 26 14 5 -3 14 6 21 20 6 14 18 26 27 26 9 0 25
14 36 30 11 17 33 36 48 43 19 8 26 17 23 30 -2 11 3 23 15 30 10 6 19 17 19
24 0 7 5 13 12 13 6 0 8 3 5 6 -7 7 72 84 86 84 9 0 30 17 60 48 62 66 79 80
102 86 31 8 83 61 91 93 7 28 68 57 91 45 16 -10 113 32 113 49 0 6 4 8 9 4
16 -9 54 53 47 79 -4 18 0 28 22 42 15 10 38 19 51 20 13 2 24 4 25 6 17 38
42 66 76 85 54 31 65 42 84 87 10 24 21 36 35 36 11 0 23 5 26 10 4 6 10 8 14
6 3 -3 22 9 41 26 19 16 51 38 70 48 20 10 42 30 50 45 20 37 67 75 94 75 24
0 44 16 90 74 16 20 34 36 39 36 5 0 23 15 39 34 20 23 52 44 98 61 53 20 69
31 74 50 5 18 15 26 40 30 21 4 38 16 46 31 8 13 17 24 22 24 5 0 6 5 3 10 -3
6 -2 10 4 10 5 0 12 9 16 20 3 10 30 31 60 46 30 14 57 34 60 44 3 10 21 25
40 34 19 9 37 21 40 26 4 6 11 8 16 5 5 -4 9 1 9 10 0 8 6 18 14 21 24 9 46
51 51 96 9 83 17 143 22 163 2 11 6 71 8 134 4 91 1 132 -15 198 -14 60 -17
90 -10 108 12 32 23 32 40 0 7 -14 15 -23 17 -21 2 2 -8 27 -23 55 -25 49 -28
52 -57 45 -29 -6 -29 -5 -23 22 7 27 31 53 51 54 6 0 3 5 -5 10 -8 5 -30 7
-49 4 -30 -6 -33 -5 -26 15 4 12 2 21 -4 21 -6 0 -11 7 -11 15 0 8 -6 15 -12
15 -7 0 -23 3 -35 6 -18 5 -23 2 -23 -13 0 -25 -72 -85 -106 -89 -15 -2 -31
-9 -35 -16 -6 -10 -15 -9 -41 7 -18 10 -42 27 -52 37 -11 10 -24 18 -28 18 -5
0 -7 4 -4 9 5 8 -20 24 -27 18 -1 -1 -16 10 -32 26 -16 15 -36 27 -43 27 -7 0
-15 7 -18 15 -4 8 -17 15 -31 15 -30 0 -110 46 -124 71 -5 10 -18 19 -28 19
-11 0 -21 6 -24 13 -3 8 -37 18 -83 25 -103 16 -129 15 -144 -3z"/>
<path d="M21395 21180 c3 -5 8 -10 11 -10 2 0 4 5 4 10 0 6 -5 10 -11 10 -5 0
-7 -4 -4 -10z"/>
<path d="M21985 21150 c-10 -16 7 -31 23 -21 10 6 10 10 -2 20 -10 9 -16 9
-21 1z"/>
<path d="M22120 21118 c-24 -10 -24 -11 -5 -18 11 -4 27 -4 36 1 10 5 21 3 27
-3 8 -8 12 -8 12 -2 0 19 -43 32 -70 22z"/>
<path d="M22068 21093 c7 -3 16 -2 19 1 4 3 -2 6 -13 5 -11 0 -14 -3 -6 -6z"/>
<path d="M22220 20959 c0 -5 5 -7 10 -4 6 3 10 8 10 11 0 2 -4 4 -10 4 -5 0
-10 -5 -10 -11z"/>
<path d="M18746 18771 c-8 -12 14 -62 24 -56 9 6 1 53 -11 60 -4 3 -10 1 -13
-4z"/>
<path d="M18460 18480 c0 -5 5 -10 11 -10 5 0 7 5 4 10 -3 6 -8 10 -11 10 -2
0 -4 -4 -4 -10z"/>
<path d="M20237 18103 c-4 -3 -7 -13 -7 -22 1 -13 3 -13 11 2 11 19 8 33 -4
20z"/>
<path d="M18030 18090 c0 -5 5 -10 10 -10 6 0 10 5 10 10 0 6 -4 10 -10 10 -5
0 -10 -4 -10 -10z"/>
<path d="M17735 17849 c-4 -6 -5 -12 -2 -15 2 -3 7 2 10 11 7 17 1 20 -8 4z"/>
<path d="M14725 15440 c-3 -5 -2 -10 4 -10 5 0 13 5 16 10 3 6 2 10 -4 10 -5
0 -13 -4 -16 -10z"/>
<path d="M14645 15399 c-9 -28 -1 -33 24 -17 26 16 27 33 1 35 -11 1 -22 -6
-25 -18z"/>
<path d="M14525 15240 c-3 -5 -1 -10 4 -10 6 0 11 5 11 10 0 6 -2 10 -4 10 -3
0 -8 -4 -11 -10z"/>
<path d="M14455 15200 c-3 -5 -2 -10 4 -10 5 0 13 5 16 10 3 6 2 10 -4 10 -5
0 -13 -4 -16 -10z"/>
<path d="M12396 13514 c-9 -22 3 -32 14 -14 12 19 12 30 1 30 -5 0 -12 -7 -15
-16z"/>
<path d="M13742 13138 c6 -18 25 -20 31 -3 5 10 0 15 -14 15 -12 0 -19 -5 -17
-12z"/>
<path d="M11640 12915 c-11 -13 -10 -14 4 -9 9 3 16 10 16 15 0 13 -6 11 -20
-6z"/>
<path d="M11143 12221 c4 -29 17 -39 17 -13 0 11 -5 24 -10 27 -6 4 -9 -2 -7
-14z"/>
<path d="M8621 12160 c-51 -23 -130 -78 -181 -126 -19 -18 -49 -45 -65 -61
-94 -87 -336 -387 -381 -470 -24 -46 -22 -65 9 -92 34 -27 54 -20 119 42 79
77 227 211 236 214 4 2 19 -16 34 -40 84 -133 228 -244 383 -298 57 -19 90
-24 180 -24 102 0 114 2 160 28 63 35 97 83 103 147 14 150 -132 318 -441 504
l-29 18 42 31 c36 28 41 36 38 67 -6 72 -112 103 -207 60z m91 -245 c20 -14
40 -25 43 -25 3 0 46 -27 96 -61 109 -73 204 -164 211 -202 9 -47 -20 -89 -87
-122 -54 -27 -69 -30 -155 -29 -130 1 -193 26 -276 108 -33 34 -72 82 -86 108
l-26 47 61 53 c34 29 75 65 92 80 48 42 80 67 85 68 3 0 22 -11 42 -25z"/>
<path d="M11160 12166 c0 -2 7 -7 16 -10 8 -3 12 -2 9 4 -6 10 -25 14 -25 6z"/>
<path d="M12166 12055 c-9 -26 -7 -32 5 -12 6 10 9 21 6 23 -2 3 -7 -2 -11
-11z"/>
<path d="M24894 12034 c-15 -8 -38 -27 -50 -42 -26 -29 -25 -39 6 -107 16 -36
37 -103 45 -145 2 -8 8 -33 14 -55 5 -22 12 -53 15 -70 3 -16 17 -88 31 -160
14 -71 25 -133 25 -137 0 -23 -267 48 -444 118 -77 31 -152 58 -166 61 -50 9
-87 -52 -51 -84 67 -57 495 -197 629 -204 24 -2 46 -8 51 -13 4 -6 18 -47 30
-91 40 -141 101 -245 142 -245 26 0 72 50 65 70 -19 58 -45 163 -51 205 -3 28
-10 79 -15 115 -5 36 -12 97 -16 135 -4 39 -8 77 -9 85 -1 8 -5 42 -9 75 -4
33 -11 83 -16 110 -5 28 -11 66 -14 85 -14 96 -64 238 -96 271 -25 28 -84 39
-116 23z"/>
<path d="M9330 11397 c-61 -30 -174 -132 -281 -252 -80 -90 -233 -331 -258
-407 -22 -68 -22 -79 9 -109 37 -38 52 -37 93 9 19 20 76 83 127 140 l92 103
25 -23 c41 -38 115 -158 154 -248 58 -134 81 -246 77 -368 -3 -103 -3 -104 25
-128 16 -13 34 -24 42 -24 20 0 65 58 92 119 58 130 27 290 -87 456 -26 38
-29 47 -14 41 21 -9 70 -22 124 -33 19 -4 80 -7 135 -7 112 1 189 24 237 69
90 84 73 191 -49 308 -93 90 -165 135 -325 205 l-56 25 29 29 c34 35 37 60 9
88 -49 49 -111 52 -200 7z m215 -250 c156 -71 266 -154 265 -199 -3 -89 -185
-161 -348 -136 -97 15 -222 72 -264 121 -21 24 -32 9 116 164 113 117 93 113
231 50z"/>
<path d="M24210 11296 c-102 -27 -245 -153 -348 -308 l-58 -86 -28 34 c-36 46
-66 45 -106 -3 -30 -36 -31 -41 -26 -101 8 -95 94 -244 242 -421 57 -68 208
-207 291 -267 75 -55 118 -65 151 -34 32 30 27 56 -21 114 -77 91 -177 224
-177 234 0 16 97 67 184 97 122 41 208 54 336 51 115 -3 132 -5 198 -27 29
-10 38 -9 61 8 43 32 39 67 -11 114 -128 121 -288 135 -495 43 -31 -13 -57
-24 -58 -24 -2 0 12 35 29 78 53 125 71 253 50 349 -26 120 -108 178 -214 149z
m-2 -169 c32 -34 53 -92 59 -167 7 -83 -8 -152 -54 -247 -34 -70 -121 -173
-146 -173 -11 1 -43 44 -175 231 l-33 46 62 94 c74 112 116 163 171 207 48 38
86 41 116 9z"/>
<path d="M10166 10710 c-185 -93 -470 -472 -508 -677 -19 -103 2 -128 217
-258 162 -98 378 -216 403 -220 24 -4 42 13 42 40 0 33 -12 41 -205 145 -96
52 -272 157 -301 180 -22 16 -22 16 63 151 105 166 103 165 134 147 13 -7 26
-16 29 -19 15 -17 248 -157 330 -199 72 -36 109 -29 110 21 0 21 -9 28 -95 74
-38 21 -132 77 -207 124 -108 67 -135 88 -128 100 7 15 88 126 128 178 72 93
88 113 98 117 7 2 34 -10 61 -27 28 -18 57 -36 66 -42 8 -5 68 -45 132 -88
131 -89 168 -97 173 -41 3 30 -3 35 -170 147 -265 177 -291 187 -372 147z"/>
<path d="M23370 10687 c-38 -20 -298 -217 -355 -269 -48 -44 -50 -48 -52 -103
-5 -185 273 -628 465 -742 55 -33 111 -33 161 0 72 48 364 293 463 389 33 31
36 63 8 78 -34 18 -52 7 -165 -98 -43 -40 -199 -173 -278 -237 l-49 -39 -27
30 c-34 37 -191 244 -191 253 0 3 30 28 68 56 37 27 74 55 82 62 224 179 266
229 225 263 -21 18 -54 6 -100 -37 -73 -69 -316 -263 -329 -263 -5 0 -155 224
-194 291 l-22 36 28 22 c15 13 96 74 180 137 156 117 170 134 136 168 -19 19
-22 19 -54 3z"/>
<path d="M22713 10268 c-39 -19 -36 -41 24 -159 144 -285 225 -537 224 -704 0
-169 -49 -191 -199 -92 -163 109 -389 379 -478 573 -40 85 -56 98 -101 79
-100 -42 -95 -177 12 -340 100 -153 298 -335 446 -410 208 -107 358 -75 413
88 26 76 20 183 -19 362 -26 119 -208 533 -259 588 -28 30 -31 30 -63 15z"/>
<path d="M10930 10253 c-131 -90 -542 -713 -542 -821 0 -14 8 -32 18 -39 24
-17 74 -13 85 7 4 8 22 47 40 85 18 39 57 110 86 159 29 49 53 90 53 92 0 7
147 222 202 296 62 82 78 98 72 71 -4 -23 -52 -269 -59 -308 -56 -309 -25
-460 101 -494 101 -27 182 33 408 303 80 95 153 179 162 187 15 12 16 10 11
-21 -21 -129 -90 -304 -263 -669 -35 -74 -64 -142 -64 -151 0 -24 32 -50 62
-50 36 0 127 92 205 207 228 334 295 648 165 766 -34 31 -91 46 -126 34 -32
-11 -133 -107 -201 -191 -22 -27 -45 -54 -50 -60 -6 -6 -37 -42 -70 -80 -85
-99 -187 -188 -199 -175 -2 2 12 78 30 169 54 265 63 334 59 458 -3 77 -8 104
-30 148 -42 85 -101 115 -155 77z"/>
<path d="M21866 9790 c-26 -32 -30 -47 -27 -110 5 -116 161 -430 337 -681 50
-72 118 -148 133 -150 3 0 14 -2 25 -4 10 -2 29 7 43 21 26 26 26 37 -8 108
-11 22 -19 43 -19 47 0 20 -307 643 -367 744 -24 40 -35 51 -60 53 -24 2 -36
-4 -57 -28z"/>
<path d="M12014 9684 c-65 -28 -122 -99 -198 -245 -29 -57 -68 -138 -85 -179
-18 -41 -36 -84 -41 -95 -33 -71 -100 -294 -106 -350 -6 -59 7 -82 52 -91 34
-6 46 5 93 89 11 20 31 54 42 75 48 84 216 416 286 566 74 158 86 197 65 218
-19 19 -78 26 -108 12z"/>
<path d="M12332 9497 c-122 -46 -255 -245 -321 -482 -25 -91 -30 -126 -32
-205 -3 -211 93 -333 256 -325 47 3 78 13 151 50 50 25 100 54 110 63 10 9 35
30 54 45 19 16 68 61 108 100 l73 72 -36 -80 c-50 -111 -50 -111 -80 -195 -15
-41 -31 -84 -36 -95 -20 -49 -29 -127 -17 -142 22 -26 58 -35 82 -19 45 29
192 266 288 462 85 173 130 309 132 395 1 74 -12 108 -53 132 -43 25 -68 11
-119 -66 -26 -39 -56 -82 -67 -97 -11 -15 -29 -40 -40 -56 -85 -126 -377 -414
-420 -414 -5 0 -16 -6 -24 -14 -9 -8 -45 -24 -80 -36 -53 -18 -69 -19 -92 -9
-54 22 -64 126 -25 260 22 75 76 201 109 253 75 121 108 168 200 286 26 34 47
68 47 74 0 42 -102 68 -168 43z"/>
<path d="M21143 9457 c-42 -19 -43 -121 -3 -307 12 -52 23 -104 25 -116 14
-62 83 -251 121 -329 96 -197 184 -263 293 -218 101 42 303 150 499 268 65 39
85 72 62 100 -24 29 -36 24 -190 -70 -52 -32 -159 -91 -237 -132 l-142 -73
-19 33 c-22 36 -95 196 -149 327 -19 47 -41 99 -48 115 -7 17 -44 113 -82 214
-72 193 -83 209 -130 188z"/>
<path d="M20700 9260 c-145 -55 -321 -128 -346 -145 -51 -33 -63 -69 -60 -174
6 -155 56 -352 133 -525 96 -212 183 -291 282 -256 134 47 538 241 563 271 21
24 13 47 -18 60 -20 7 -44 -2 -132 -45 -171 -86 -390 -186 -407 -186 -7 0 -22
24 -33 53 -11 28 -32 79 -46 112 -13 33 -34 83 -45 111 l-20 52 82 32 c174 68
348 152 371 178 17 20 18 23 2 47 -9 14 -24 24 -34 22 -10 -1 -66 -26 -125
-55 -60 -29 -110 -52 -113 -52 -2 0 -23 -8 -47 -19 -78 -34 -146 -61 -156 -61
-11 0 -121 327 -121 359 0 17 51 40 317 141 67 25 84 36 89 56 8 30 -11 54
-40 53 -11 0 -55 -13 -96 -29z"/>
<path d="M13280 9128 c-91 -95 -340 -757 -340 -904 0 -56 42 -77 93 -48 11 7
20 27 24 60 10 91 94 362 174 561 44 113 86 203 92 203 1 0 4 -52 5 -115 5
-175 10 -274 17 -340 24 -216 93 -331 195 -327 109 5 166 72 323 390 106 212
122 240 129 220 7 -21 -4 -207 -17 -278 -2 -14 -9 -54 -15 -90 -15 -95 -39
-215 -87 -439 l-18 -83 25 -20 c28 -23 64 -17 91 15 22 25 88 157 118 233 19
49 68 222 77 269 26 146 26 301 0 376 -23 64 -68 114 -121 134 -93 36 -133 -4
-257 -250 -125 -249 -171 -325 -220 -363 -15 -12 -16 -2 -18 115 -8 454 -48
627 -160 692 -48 27 -77 24 -110 -11z"/>
<path d="M19635 8926 c-27 -6 -78 -26 -112 -44 -56 -28 -63 -30 -63 -13 0 24
-31 51 -59 51 -37 0 -91 -61 -93 -106 -7 -146 47 -429 126 -656 27 -80 41
-136 38 -156 -3 -23 0 -31 15 -36 11 -4 25 -19 32 -34 27 -59 56 -92 81 -92
33 0 70 26 70 50 0 16 8 18 78 15 44 -2 101 3 132 11 401 103 539 565 253 851
-77 78 -138 116 -236 148 -79 26 -186 30 -262 11z m155 -98 c63 -20 118 -61
173 -129 128 -159 160 -386 77 -548 -64 -126 -196 -179 -365 -146 -16 4 -30 7
-31 8 -1 1 -18 83 -39 182 -20 99 -39 187 -41 195 -2 8 -14 65 -28 125 -13 61
-31 138 -39 173 l-14 62 26 19 c101 71 187 89 281 59z"/>
<path d="M14915 8756 c-91 -41 -155 -196 -171 -416 -13 -166 -5 -274 27 -390
47 -170 131 -264 244 -272 55 -3 102 29 155 109 44 65 86 162 195 451 15 40
29 71 31 69 5 -5 13 -82 19 -192 15 -277 56 -435 125 -487 32 -23 87 -33 136
-23 73 13 169 138 238 307 40 99 115 379 132 493 3 17 6 39 9 50 2 11 7 48 10
81 6 57 5 63 -16 78 -28 19 -40 20 -62 4 -19 -14 -22 -24 -32 -118 -4 -36 -9
-68 -11 -71 -2 -3 -6 -21 -9 -40 -43 -257 -165 -577 -251 -660 l-34 -33 -1 30
c0 16 -2 52 -4 79 -2 28 -6 101 -9 164 -6 101 -15 187 -31 276 -3 17 -21 62
-40 102 -30 61 -42 74 -78 92 -24 12 -57 21 -74 21 -66 0 -96 -48 -207 -332
-74 -191 -123 -291 -161 -332 l-28 -30 -22 26 c-12 14 -28 54 -36 89 -21 96
-18 448 5 564 2 11 7 40 11 65 6 40 40 175 52 206 7 18 -33 54 -59 54 -13 -1
-36 -7 -53 -14z"/>
<path d="M17977 8672 c-34 -21 -54 -62 -65 -134 -9 -58 -8 -172 1 -249 4 -24
9 -71 12 -104 13 -130 18 -164 41 -272 13 -65 21 -126 17 -144 -4 -23 -1 -33
14 -44 11 -8 23 -27 26 -42 4 -15 15 -43 26 -60 17 -27 27 -33 54 -33 37 0 57
15 57 43 0 16 5 18 28 12 103 -26 195 -23 300 11 121 39 245 141 296 242 109
215 57 466 -131 631 -142 124 -310 167 -471 119 -37 -11 -71 -24 -76 -29 -16
-14 -26 -11 -26 9 0 49 -55 73 -103 44z m423 -125 c40 -20 102 -74 138 -121
20 -26 69 -135 85 -191 14 -48 16 -199 3 -254 -11 -49 -64 -147 -97 -180 -68
-67 -160 -93 -269 -76 -71 11 -110 31 -111 57 -1 13 -2 37 -4 53 -1 17 -6 80
-10 140 -4 61 -9 117 -10 126 -2 9 -6 54 -10 100 -3 46 -8 102 -10 124 -3 22
-7 72 -11 112 l-6 72 43 22 c99 50 190 56 269 16z"/>
<path d="M17628 8605 c-1 -2 -48 -6 -103 -10 -55 -3 -118 -8 -140 -10 -22 -2
-67 -7 -100 -10 -137 -14 -171 -37 -204 -138 -29 -94 -41 -188 -43 -347 -1
-80 8 -217 18 -264 2 -12 7 -34 10 -51 17 -95 56 -178 99 -210 18 -14 42 -20
78 -20 51 0 182 12 222 20 11 3 38 7 60 10 46 6 269 43 304 50 51 10 65 41 32
74 -16 16 -26 17 -62 11 -24 -5 -62 -11 -84 -14 -22 -4 -51 -9 -65 -11 -71
-12 -222 -35 -270 -40 -30 -3 -67 -8 -82 -11 -25 -4 -28 -1 -29 23 0 16 -2 35
-4 44 -4 24 -14 115 -21 207 -6 81 -6 82 17 83 13 0 31 2 39 4 8 1 47 6 85 9
39 4 81 9 95 11 14 2 45 7 70 10 122 16 170 28 185 45 34 38 -10 81 -68 66
-62 -15 -320 -48 -402 -50 l-30 -1 0 195 0 194 40 7 c47 8 132 16 265 25 52 3
105 10 116 14 25 10 36 41 20 61 -11 16 -41 30 -48 24z"/>
<path d="M16352 8569 c-39 -5 -62 -15 -82 -34 -72 -69 -123 -302 -123 -560 0
-154 6 -210 33 -298 34 -110 64 -129 197 -127 167 3 404 19 523 36 31 4 60 26
60 44 0 17 -29 42 -51 43 -27 1 -214 -13 -241 -18 -9 -2 -79 -7 -155 -10 -76
-4 -142 -8 -147 -9 -16 -2 -21 53 -21 209 l0 150 80 1 c106 2 299 13 355 20
61 8 80 20 80 49 0 33 -32 48 -89 41 -25 -3 -122 -8 -216 -11 -93 -3 -178 -8
-189 -10 -17 -3 -18 4 -12 133 6 142 13 226 21 252 4 13 36 16 216 16 176 1
213 4 226 17 24 23 10 64 -24 71 -38 7 -376 3 -441 -5z"/>
</g>
</svg>
